RobotoSerifMicro-SuperWdith03ip.ufo
<glyph name="at" format="2">
  <advance width="1161"/>
  <unicode hex="0040"/>
  <outline>
    <contour>
      <point x="562" y="-74" type="curve" smooth="yes"/>
      <point x="308" y="-74"/>
      <point x="181" y="43"/>
      <point x="181" y="240" type="curve" smooth="yes"/>
      <point x="181" y="467"/>
      <point x="364" y="602"/>
      <point x="640" y="602" type="curve" smooth="yes"/>
      <point x="879" y="602"/>
      <point x="980" y="507"/>
      <point x="980" y="344" type="curve" smooth="yes"/>
      <point x="980" y="195"/>
      <point x="919" y="143"/>
      <point x="839" y="143" type="curve"/>
      <point x="792" y="143"/>
      <point x="783" y="162"/>
      <point x="792" y="202" type="curve" smooth="yes"/>
      <point x="852" y="475" type="line"/>
      <point x="737" y="475" type="line"/>
      <point x="681" y="379" type="line"/>
      <point x="673" y="388" type="line"/>
      <point x="624" y="158" type="line"/>
      <point x="630" y="162" type="line"/>
      <point x="678" y="88"/>
      <point x="721" y="62"/>
      <point x="822" y="62" type="curve" smooth="yes"/>
      <point x="978" y="62"/>
      <point x="1100" y="159"/>
      <point x="1100" y="350" type="curve" smooth="yes"/>
      <point x="1100" y="562"/>
      <point x="955" y="696"/>
      <point x="640" y="696" type="curve" smooth="yes"/>
      <point x="298" y="696"/>
      <point x="61" y="523"/>
      <point x="61" y="240" type="curve" smooth="yes"/>
      <point x="61" y="-25"/>
      <point x="238" y="-168"/>
      <point x="562" y="-168" type="curve" smooth="yes"/>
      <point x="703" y="-168"/>
      <point x="828" y="-140"/>
      <point x="902" y="-109" type="curve"/>
      <point x="872" y="-20" type="line"/>
      <point x="812" y="-43"/>
      <point x="704" y="-74"/>
    </contour>
    <contour>
      <point x="478" y="56" type="curve" smooth="yes"/>
      <point x="567" y="56"/>
      <point x="622" y="92"/>
      <point x="682" y="188" type="curve"/>
      <point x="646" y="222" type="line"/>
      <point x="617" y="170"/>
      <point x="575" y="133"/>
      <point x="537" y="133" type="curve" smooth="yes"/>
      <point x="505" y="133"/>
      <point x="486" y="154"/>
      <point x="486" y="205" type="curve" smooth="yes"/>
      <point x="486" y="305"/>
      <point x="529" y="404"/>
      <point x="599" y="404" type="curve" smooth="yes"/>
      <point x="640" y="404"/>
      <point x="661" y="373"/>
      <point x="671" y="274" type="curve"/>
      <point x="708" y="338" type="line"/>
      <point x="698" y="424"/>
      <point x="664" y="481"/>
      <point x="559" y="481" type="curve" smooth="yes"/>
      <point x="422" y="481"/>
      <point x="321" y="352"/>
      <point x="321" y="219" type="curve" smooth="yes"/>
      <point x="321" y="95"/>
      <point x="393" y="56"/>
    </contour>
  </outline>
</glyph>
<glyph name="t" format="2">
  <advance width="685"/>
  <unicode hex="0074"/>
  <anchor x="280" y="717.0" name="top"/>
  <anchor x="491.4375" y="681.0" name="right"/>
  <anchor x="375" y="0.0" name="bottom"/>
  <outline>
    <contour>
      <point x="412" y="213" type="curve" smooth="yes"/>
      <point x="412" y="737" type="line"/>
      <point x="177" y="737" type="line"/>
      <point x="177" y="561.0" type="line"/>
      <point x="148" y="552.0" type="line"/>
      <point x="148" y="193" type="line" smooth="yes"/>
      <point x="148" y="32"/>
      <point x="259" y="-12.0"/>
      <point x="421" y="-12.0" type="curve"/>
      <point x="497" y="-12.0"/>
      <point x="559" y="-6"/>
      <point x="607" y="0" type="curve"/>
      <point x="607" y="118" type="line"/>
      <point x="583" y="116"/>
      <point x="560" y="113"/>
      <point x="525" y="113" type="curve" smooth="yes"/>
      <point x="448" y="112"/>
      <point x="412" y="132"/>
    </contour>
    <contour>
      <point x="177" y="632" type="line"/>
      <point x="177" y="573"/>
      <point x="135" y="568"/>
      <point x="73" y="567" type="curve" smooth="yes"/>
      <point x="41" y="567" type="line"/>
      <point x="41" y="465" type="line"/>
      <point x="196" y="465" type="line"/>
    </contour>
    <contour>
      <point x="307" y="465" type="line"/>
      <point x="619" y="465" type="line"/>
      <point x="619" y="572" type="line"/>
      <point x="307" y="572" type="line"/>
    </contour>
  </outline>
</glyph>
<glyph name="brokenbar" format="2">
  <advance width="389"/>
  <unicode hex="00A6"/>
  <outline>
    <contour>
      <point x="131" y="780" type="line"/>
      <point x="131" y="404" type="line"/>
      <point x="258" y="404" type="line"/>
      <point x="258" y="780" type="line"/>
    </contour>
    <contour>
      <point x="131" y="218" type="line"/>
      <point x="131" y="-158" type="line"/>
      <point x="258" y="-158" type="line"/>
      <point x="258" y="218" type="line"/>
    </contour>
  </outline>
</glyph>
<glyph name="logicalnot" format="2">
  <advance width="642"/>
  <unicode hex="00AC"/>
  <outline>
    <contour>
      <point x="434" y="393" type="line"/>
      <point x="434" y="153" type="line"/>
      <point x="584" y="153" type="line"/>
      <point x="584" y="468" type="line"/>
      <point x="58" y="468" type="line"/>
      <point x="58" y="309" type="line"/>
      <point x="563" y="309" type="line"/>
    </contour>
  </outline>
</glyph>
<glyph name="macron" format="2">
  <advance width="538"/>
  <unicode hex="00AF"/>
  <anchor x="269.0" y="571" name="_top"/>
  <outline>
    <contour>
      <point x="45.0" y="787" type="line"/>
      <point x="45.0" y="651" type="line"/>
      <point x="493.0" y="651" type="line"/>
      <point x="493.0" y="787" type="line"/>
    </contour>
  </outline>
</glyph>
<glyph name="cedilla" format="2">
  <advance width="538"/>
  <unicode hex="00B8"/>
  <anchor x="287" y="0" name="_bottom"/>
  <outline>
    <contour>
      <point x="353" y="6" type="line"/>
      <point x="237" y="6" type="line"/>
      <point x="179" y="-145" type="line"/>
      <point x="208" y="-145" type="line" smooth="yes"/>
      <point x="287" y="-145"/>
      <point x="308" y="-161"/>
      <point x="308" y="-192" type="curve" smooth="yes"/>
      <point x="308" y="-216"/>
      <point x="292" y="-234"/>
      <point x="245" y="-234" type="curve" smooth="yes"/>
      <point x="198" y="-234"/>
      <point x="169" y="-215"/>
      <point x="142" y="-192" type="curve"/>
      <point x="91" y="-258" type="line"/>
      <point x="130" y="-291"/>
      <point x="188" y="-313"/>
      <point x="272" y="-313" type="curve" smooth="yes"/>
      <point x="378" y="-313"/>
      <point x="460" y="-284"/>
      <point x="460" y="-189" type="curve" smooth="yes"/>
      <point x="460" y="-113"/>
      <point x="391" y="-81"/>
      <point x="241" y="-77" type="curve"/>
      <point x="242" y="-96" type="line"/>
    </contour>
  </outline>
</glyph>
<glyph name="Thorn" format="2">
  <advance width="825"/>
  <unicode hex="00DE"/>
  <outline>
    <contour>
      <point x="433" y="710" type="line"/>
      <point x="433" y="610" type="line"/>
      <point x="407" y="610" type="line" smooth="yes"/>
      <point x="370" y="610"/>
      <point x="345" y="607"/>
      <point x="345" y="600" type="curve"/>
      <point x="345" y="111" type="line" smooth="yes"/>
      <point x="345" y="104"/>
      <point x="370" y="101"/>
      <point x="407" y="101" type="curve" smooth="yes"/>
      <point x="433" y="101" type="line"/>
      <point x="433" y="0" type="line"/>
      <point x="42" y="0" type="line"/>
      <point x="42" y="90" type="line"/>
      <point x="53" y="90" type="line" smooth="yes"/>
      <point x="86" y="90"/>
      <point x="110" y="97"/>
      <point x="110" y="126" type="curve" smooth="yes"/>
      <point x="110" y="585" type="line" smooth="yes"/>
      <point x="110" y="614"/>
      <point x="86" y="621"/>
      <point x="53" y="621" type="curve" smooth="yes"/>
      <point x="42" y="621" type="line"/>
      <point x="42" y="710" type="line"/>
    </contour>
    <contour>
      <point x="800" y="363" type="curve" smooth="yes"/>
      <point x="800" y="235"/>
      <point x="685" y="160"/>
      <point x="520" y="160" type="curve" smooth="yes"/>
      <point x="275" y="160" type="line"/>
      <point x="275" y="258" type="line"/>
      <point x="468" y="258" type="line" smooth="yes"/>
      <point x="532" y="258"/>
      <point x="570" y="289"/>
      <point x="570" y="358" type="curve" smooth="yes"/>
      <point x="570" y="428"/>
      <point x="532" y="455"/>
      <point x="472" y="455" type="curve" smooth="yes"/>
      <point x="247" y="455" type="line"/>
      <point x="238" y="554" type="line"/>
      <point x="524" y="554" type="line" smooth="yes"/>
      <point x="693" y="554"/>
      <point x="800" y="486"/>
    </contour>
  </outline>
</glyph>
<glyph name="icircumflex" format="2">
  <advance width="473"/>
  <unicode hex="00EE"/>
  <outline>
    <contour>
      <point x="317" y="870" type="line"/>
      <point x="484" y="671" type="line"/>
      <point x="484" y="618" type="line"/>
      <point x="409" y="618" type="line"/>
      <point x="208" y="726" type="line"/>
      <point x="269" y="725" type="line"/>
      <point x="75" y="618" type="line"/>
      <point x="4" y="618" type="line"/>
      <point x="4" y="671" type="line"/>
      <point x="172" y="870" type="line"/>
    </contour>
    <component base="dotlessi"/>
  </outline>
</glyph>
<glyph name="circumflex" format="2">
  <advance width="538"/>
  <unicode hex="02C6"/>
  <anchor x="269.0" y="571" name="_top"/>
  <outline>
    <contour>
      <point x="341.0" y="870" type="line"/>
      <point x="519.0" y="663" type="line"/>
      <point x="519.0" y="618" type="line"/>
      <point x="444.0" y="618" type="line"/>
      <point x="232.0" y="726" type="line"/>
      <point x="293.0" y="725" type="line"/>
      <point x="90.0" y="618" type="line"/>
      <point x="19.0" y="618" type="line"/>
      <point x="19.0" y="663" type="line"/>
      <point x="196.0" y="870" type="line"/>
    </contour>
  </outline>
</glyph>
<glyph name="breve" format="2">
  <advance width="538"/>
  <unicode hex="02D8"/>
  <anchor x="274.5" y="571" name="_top"/>
  <outline>
    <contour>
      <point x="274.0" y="621" type="curve" smooth="yes"/>
      <point x="129.0" y="621"/>
      <point x="48.0" y="696"/>
      <point x="39.0" y="843" type="curve"/>
      <point x="149.0" y="843" type="line"/>
      <point x="162.0" y="789"/>
      <point x="200.0" y="768"/>
      <point x="278.0" y="768" type="curve" smooth="yes"/>
      <point x="356.0" y="768"/>
      <point x="392.0" y="789"/>
      <point x="406.0" y="843" type="curve"/>
      <point x="510.0" y="843" type="line"/>
      <point x="501.0" y="696"/>
      <point x="420.0" y="621"/>
    </contour>
  </outline>
</glyph>
<glyph name="dagger" format="2">
  <advance width="698"/>
  <unicode hex="2020"/>
  <outline>
    <contour>
      <point x="309" y="459" type="line"/>
      <point x="389" y="459" type="line"/>
      <point x="582" y="369" type="line"/>
      <point x="638" y="369" type="line"/>
      <point x="638" y="574" type="line"/>
      <point x="582" y="574" type="line"/>
      <point x="389" y="495" type="line"/>
      <point x="309" y="495" type="line"/>
      <point x="115" y="574" type="line"/>
      <point x="59" y="574" type="line"/>
      <point x="59" y="369" type="line"/>
      <point x="115" y="369" type="line"/>
    </contour>
    <contour>
      <point x="504" y="710" type="line"/>
      <point x="194" y="710" type="line"/>
      <point x="194" y="665" type="line" smooth="yes"/>
      <point x="194" y="625"/>
      <point x="310" y="558"/>
      <point x="310" y="473" type="curve" smooth="yes"/>
      <point x="310" y="360"/>
      <point x="215" y="316"/>
      <point x="196" y="302" type="curve"/>
      <point x="196" y="278" type="line" smooth="yes"/>
      <point x="196" y="237"/>
      <point x="262" y="151"/>
      <point x="302" y="-67" type="curve"/>
      <point x="396" y="-67" type="line"/>
      <point x="436" y="151"/>
      <point x="502" y="237"/>
      <point x="502" y="278" type="curve" smooth="yes"/>
      <point x="502" y="302" type="line"/>
      <point x="482" y="316"/>
      <point x="388" y="360"/>
      <point x="388" y="473" type="curve" smooth="yes"/>
      <point x="388" y="558"/>
      <point x="504" y="625"/>
      <point x="504" y="665" type="curve" smooth="yes"/>
    </contour>
  </outline>
</glyph>
<glyph name="daggerdbl" format="2">
  <advance width="698"/>
  <unicode hex="2021"/>
  <outline>
    <contour>
      <point x="389" y="516" type="line"/>
      <point x="309" y="516" type="line"/>
      <point x="115" y="596" type="line"/>
      <point x="59" y="596" type="line"/>
      <point x="59" y="414" type="line"/>
      <point x="115" y="414" type="line"/>
      <point x="309" y="481" type="line"/>
      <point x="389" y="481" type="line"/>
      <point x="582" y="414" type="line"/>
      <point x="638" y="414" type="line"/>
      <point x="638" y="596" type="line"/>
      <point x="582" y="596" type="line"/>
    </contour>
    <contour>
      <point x="504" y="710" type="line"/>
      <point x="194" y="710" type="line"/>
      <point x="194" y="665" type="line" smooth="yes"/>
      <point x="194" y="625"/>
      <point x="310" y="587"/>
      <point x="310" y="501" type="curve" smooth="yes"/>
      <point x="310" y="399"/>
      <point x="224" y="368"/>
      <point x="205" y="353" type="curve"/>
      <point x="205" y="290" type="line"/>
      <point x="224" y="275"/>
      <point x="310" y="244"/>
      <point x="310" y="142" type="curve" smooth="yes"/>
      <point x="310" y="56"/>
      <point x="194" y="18"/>
      <point x="194" y="-22" type="curve" smooth="yes"/>
      <point x="194" y="-67" type="line"/>
      <point x="504" y="-67" type="line"/>
      <point x="504" y="-22" type="line" smooth="yes"/>
      <point x="504" y="18"/>
      <point x="388" y="56"/>
      <point x="388" y="142" type="curve" smooth="yes"/>
      <point x="388" y="244"/>
      <point x="474" y="275"/>
      <point x="493" y="290" type="curve"/>
      <point x="493" y="353" type="line"/>
      <point x="474" y="368"/>
      <point x="388" y="399"/>
      <point x="388" y="501" type="curve" smooth="yes"/>
      <point x="388" y="587"/>
      <point x="504" y="625"/>
      <point x="504" y="665" type="curve" smooth="yes"/>
    </contour>
    <contour>
      <point x="389" y="162" type="line"/>
      <point x="309" y="162" type="line"/>
      <point x="115" y="229" type="line"/>
      <point x="59" y="229" type="line"/>
      <point x="59" y="47" type="line"/>
      <point x="115" y="47" type="line"/>
      <point x="309" y="127" type="line"/>
      <point x="389" y="127" type="line"/>
      <point x="582" y="47" type="line"/>
      <point x="638" y="47" type="line"/>
      <point x="638" y="229" type="line"/>
      <point x="582" y="229" type="line"/>
    </contour>
  </outline>
</glyph>
<glyph name="arrowleft" format="2">
  <advance width="953"/>
  <unicode hex="2190"/>
  <outline>
    <contour>
      <point x="520" y="614" type="line"/>
      <point x="70" y="373" type="line"/>
      <point x="70" y="333" type="line"/>
      <point x="520" y="92" type="line"/>
      <point x="552" y="135" type="line"/>
      <point x="346" y="305" type="line"/>
      <point x="883" y="305" type="line"/>
      <point x="883" y="401" type="line"/>
      <point x="346" y="401" type="line"/>
      <point x="551" y="572" type="line"/>
    </contour>
  </outline>
</glyph>
<glyph name="infinity" format="2">
  <advance width="873"/>
  <unicode hex="221E"/>
  <outline>
    <contour>
      <point x="220" y="122" type="curve"/>
      <point x="97" y="122"/>
      <point x="35" y="220"/>
      <point x="35" y="352" type="curve" smooth="yes"/>
      <point x="35" y="486"/>
      <point x="116" y="589"/>
      <point x="257" y="589" type="curve" smooth="yes"/>
      <point x="406.0" y="589.0"/>
      <point x="466" y="490"/>
      <point x="511" y="398" type="curve" smooth="yes"/>
      <point x="551" y="315"/>
      <point x="575" y="254"/>
      <point x="648" y="254" type="curve" smooth="yes"/>
      <point x="704" y="254"/>
      <point x="735" y="291"/>
      <point x="735" y="358" type="curve" smooth="yes"/>
      <point x="735" y="419"/>
      <point x="701" y="456"/>
      <point x="632" y="456" type="curve" smooth="yes"/>
      <point x="558" y="456"/>
      <point x="516" y="416"/>
      <point x="494" y="367" type="curve"/>
      <point x="441" y="368" type="line"/>
      <point x="463" y="485"/>
      <point x="530" y="589"/>
      <point x="653" y="589" type="curve"/>
      <point x="777" y="589"/>
      <point x="838" y="491"/>
      <point x="838" y="358" type="curve" smooth="yes"/>
      <point x="838" y="224"/>
      <point x="760" y="122"/>
      <point x="619" y="122" type="curve" smooth="yes"/>
      <point x="472.0" y="122"/>
      <point x="408" y="223"/>
      <point x="363" y="312" type="curve" smooth="yes"/>
      <point x="321" y="395"/>
      <point x="298" y="456"/>
      <point x="225" y="456" type="curve" smooth="yes"/>
      <point x="169" y="456"/>
      <point x="138" y="418"/>
      <point x="138" y="352" type="curve" smooth="yes"/>
      <point x="138" y="292"/>
      <point x="171" y="254"/>
      <point x="241" y="254" type="curve" smooth="yes"/>
      <point x="314" y="254"/>
      <point x="357" y="295"/>
      <point x="379" y="343" type="curve"/>
      <point x="432" y="342" type="line"/>
      <point x="409" y="225"/>
      <point x="343" y="122"/>
    </contour>
  </outline>
</glyph>
<glyph name="integral" format="2">
  <advance width="820"/>
  <unicode hex="222B"/>
  <outline>
    <contour>
      <point x="489" y="-34" type="curve" smooth="yes"/>
      <point x="540" y="570" type="line" smooth="yes"/>
      <point x="545" y="627"/>
      <point x="566" y="647"/>
      <point x="610" y="647" type="curve" smooth="yes"/>
      <point x="638" y="647"/>
      <point x="666" y="640"/>
      <point x="685" y="631" type="curve"/>
      <point x="693" y="648"/>
      <point x="693" y="673"/>
      <point x="660" y="677" type="curve"/>
      <point x="660" y="538" type="line"/>
      <point x="790" y="538" type="line"/>
      <point x="790" y="712" type="line"/>
      <point x="755" y="722"/>
      <point x="691" y="737"/>
      <point x="598" y="737" type="curve" smooth="yes"/>
      <point x="406" y="737"/>
      <point x="327" y="655"/>
      <point x="316" y="520" type="curve" smooth="yes"/>
      <point x="265" y="-84" type="line" smooth="yes"/>
      <point x="260" y="-143"/>
      <point x="237" y="-161"/>
      <point x="195" y="-161" type="curve" smooth="yes"/>
      <point x="170" y="-161"/>
      <point x="144" y="-156"/>
      <point x="131" y="-147" type="curve"/>
      <point x="123" y="-163"/>
      <point x="138" y="-195"/>
      <point x="160" y="-204" type="curve"/>
      <point x="160" y="-54" type="line"/>
      <point x="30" y="-54" type="line"/>
      <point x="30" y="-225" type="line"/>
      <point x="55" y="-235"/>
      <point x="114" y="-251"/>
      <point x="207" y="-251" type="curve" smooth="yes"/>
      <point x="399" y="-251"/>
      <point x="478" y="-169"/>
    </contour>
  </outline>
</glyph>
<glyph name="hook" format="2">
  <advance width="538"/>
  <unicode hex="2440"/>
  <anchor x="256.0" y="571" name="_top"/>
  <outline>
    <contour>
      <point x="21" y="804" type="line"/>
      <point x="30" y="899"/>
      <point x="128" y="954"/>
      <point x="267" y="954" type="curve" smooth="yes"/>
      <point x="418" y="954"/>
      <point x="508" y="916"/>
      <point x="508" y="820" type="curve" smooth="yes"/>
      <point x="508" y="713"/>
      <point x="403" y="680"/>
      <point x="248" y="679" type="curve"/>
      <point x="320" y="729" type="line"/>
      <point x="320" y="632" type="line"/>
      <point x="192" y="632" type="line"/>
      <point x="192" y="741" type="line"/>
      <point x="305" y="742"/>
      <point x="349" y="759"/>
      <point x="349" y="808" type="curve" smooth="yes"/>
      <point x="349" y="847"/>
      <point x="313" y="862"/>
      <point x="265" y="862" type="curve" smooth="yes"/>
      <point x="203" y="862"/>
      <point x="177" y="839"/>
      <point x="172" y="804" type="curve"/>
    </contour>
  </outline>
</glyph>
<glyph name="uni25C2" format="2">
  <advance width="616"/>
  <unicode hex="25C2"/>
  <outline>
    <contour>
      <point x="470" y="20" type="line"/>
      <point x="74" y="277" type="line"/>
      <point x="470" y="535" type="line"/>
    </contour>
  </outline>
</glyph>
<glyph name="uni27F7" format="2">
  <advance width="1490"/>
  <unicode hex="27F7"/>
  <outline>
    <contour>
      <point x="1145" y="305" type="line"/>
      <point x="991" y="152" type="line"/>
      <point x="1021" y="109" type="line"/>
      <point x="1420" y="333" type="line"/>
      <point x="1420" y="373" type="line"/>
      <point x="1021" y="597" type="line"/>
      <point x="991" y="554" type="line"/>
      <point x="1145" y="401" type="line"/>
      <point x="344" y="401" type="line"/>
      <point x="499" y="554" type="line"/>
      <point x="469" y="597" type="line"/>
      <point x="70" y="373" type="line"/>
      <point x="70" y="333" type="line"/>
      <point x="469" y="109" type="line"/>
      <point x="499" y="152" type="line"/>
      <point x="344" y="305" type="line"/>
    </contour>
  </outline>
</glyph>
<glyph name="bar.uc" format="2">
  <advance width="389"/>
  <outline>
    <contour>
      <point x="131" y="760" type="line"/>
      <point x="131" y="-60" type="line"/>
      <point x="258" y="-60" type="line"/>
      <point x="258" y="760" type="line"/>
    </contour>
  </outline>
</glyph>
<glyph name="bracketleft.uc" format="2">
  <advance width="448"/>
  <outline>
    <contour>
      <point x="422" y="25" type="line"/>
      <point x="268" y="25" type="line"/>
      <point x="268" y="646" type="line"/>
      <point x="422" y="646" type="line"/>
      <point x="422" y="750" type="line"/>
      <point x="62" y="750" type="line"/>
      <point x="62" y="-80" type="line"/>
      <point x="422" y="-80" type="line"/>
    </contour>
  </outline>
</glyph>
<glyph name="breve.uc" format="2">
  <advance width="538"/>
  <anchor x="268.5" y="740" name="_top"/>
  <outline>
    <contour>
      <point x="268.99995117041453" y="781" type="curve" smooth="yes"/>
      <point x="105.99995117041453" y="781"/>
      <point x="18.999951170414533" y="846"/>
      <point x="19.999951170414533" y="1002" type="curve"/>
      <point x="131.99995117041453" y="1002" type="line"/>
      <point x="145.99995117041453" y="945"/>
      <point x="184.99995117041453" y="927"/>
      <point x="271.99995117041453" y="927" type="curve" smooth="yes"/>
      <point x="358.99995117041453" y="927"/>
      <point x="396.99995117041453" y="945"/>
      <point x="410.99995117041453" y="1002" type="curve"/>
      <point x="516.9999511704145" y="1002" type="line"/>
      <point x="517.9999511704145" y="846"/>
      <point x="431.99995117041453" y="781"/>
    </contour>
  </outline>
</glyph>
<glyph name="breve_acute.uc" format="2">
  <advance width="543"/>
  <anchor x="268.5" y="740" name="_top"/>
  <outline>
    <contour>
      <point x="301" y="1186" type="curve" smooth="yes"/>
      <point x="187" y="1080" type="line"/>
      <point x="187" y="1035" type="line"/>
      <point x="244" y="1035" type="line"/>
      <point x="405" y="1064" type="line" smooth="yes"/>
      <point x="508" y="1083"/>
      <point x="552" y="1116"/>
      <point x="552" y="1179" type="curve" smooth="yes"/>
      <point x="552" y="1234"/>
      <point x="514" y="1273"/>
      <point x="453" y="1273" type="curve" smooth="yes"/>
      <point x="390" y="1273"/>
      <point x="357" y="1238"/>
    </contour>
    <component base="breve.uc"/>
  </outline>
</glyph>
<glyph name="breve_grave.uc" format="2">
  <advance width="543"/>
  <anchor x="268.5" y="740" name="_top"/>
  <outline>
    <contour>
      <point x="243" y="1186" type="curve" smooth="yes"/>
      <point x="357" y="1080" type="line"/>
      <point x="357" y="1035" type="line"/>
      <point x="300" y="1035" type="line"/>
      <point x="138" y="1064" type="line" smooth="yes"/>
      <point x="36" y="1082"/>
      <point x="-7" y="1116"/>
      <point x="-7" y="1179" type="curve" smooth="yes"/>
      <point x="-7" y="1234"/>
      <point x="30" y="1273"/>
      <point x="91" y="1273" type="curve" smooth="yes"/>
      <point x="154" y="1273"/>
      <point x="188" y="1237"/>
    </contour>
    <component base="breve.uc"/>
  </outline>
</glyph>
<glyph name="breve_hook.uc" format="2">
  <advance width="541"/>
  <anchor x="268.5" y="740" name="_top"/>
  <outline>
    <contour>
      <point x="51" y="1156" type="line"/>
      <point x="59" y="1248"/>
      <point x="151" y="1287"/>
      <point x="276" y="1287" type="curve" smooth="yes"/>
      <point x="412" y="1287"/>
      <point x="498" y="1258"/>
      <point x="498" y="1173" type="curve" smooth="yes"/>
      <point x="498" y="1074"/>
      <point x="393" y="1058"/>
      <point x="260" y="1054" type="curve"/>
      <point x="332" y="1104" type="line"/>
      <point x="332" y="1015" type="line"/>
      <point x="208" y="1015" type="line"/>
      <point x="208" y="1106" type="line"/>
      <point x="299" y="1109"/>
      <point x="351" y="1115"/>
      <point x="351" y="1163" type="curve" smooth="yes"/>
      <point x="351" y="1196"/>
      <point x="321" y="1208"/>
      <point x="274" y="1208" type="curve" smooth="yes"/>
      <point x="230" y="1208"/>
      <point x="195" y="1196"/>
      <point x="190" y="1156" type="curve"/>
    </contour>
    <contour>
      <point x="268.99995117041453" y="781" type="curve" smooth="yes"/>
      <point x="105.99995117041453" y="781"/>
      <point x="18.999951170414533" y="846"/>
      <point x="19.999951170414533" y="1002" type="curve"/>
      <point x="131.99995117041453" y="1002" type="line"/>
      <point x="145.99995117041453" y="945"/>
      <point x="184.99995117041453" y="927"/>
      <point x="271.99995117041453" y="927" type="curve" smooth="yes"/>
      <point x="358.99995117041453" y="927"/>
      <point x="396.99995117041453" y="945"/>
      <point x="410.99995117041453" y="1002" type="curve"/>
      <point x="516.9999511704145" y="1002" type="line"/>
      <point x="517.9999511704145" y="846"/>
      <point x="431.99995117041453" y="781"/>
    </contour>
  </outline>
</glyph>
<glyph name="breve_tilde.uc" format="2">
  <advance width="538"/>
  <anchor x="268.5" y="740" name="_top"/>
  <outline>
    <contour>
      <point x="268.99573744334043" y="781" type="curve" smooth="yes"/>
      <point x="106.99573744334043" y="781"/>
      <point x="19.99573744334043" y="846"/>
      <point x="19.99573744334043" y="984" type="curve"/>
      <point x="131.99573744334043" y="984" type="line"/>
      <point x="145.99573744334043" y="935"/>
      <point x="184.99573744334043" y="917"/>
      <point x="271.99573744334043" y="917" type="curve" smooth="yes"/>
      <point x="358.99573744334043" y="917"/>
      <point x="395.99573744334043" y="935"/>
      <point x="410.99573744334043" y="984" type="curve"/>
      <point x="516.9957374433404" y="984" type="line"/>
      <point x="517.9957374433404" y="846"/>
      <point x="430.99573744334043" y="781"/>
    </contour>
    <contour>
      <point x="375" y="1024" type="curve" smooth="yes"/>
      <point x="473" y="1024"/>
      <point x="519" y="1080"/>
      <point x="539" y="1225" type="curve"/>
      <point x="448" y="1237" type="line"/>
      <point x="434" y="1183"/>
      <point x="420" y="1161"/>
      <point x="385" y="1161" type="curve" smooth="yes"/>
      <point x="330" y="1161"/>
      <point x="289" y="1232"/>
      <point x="182" y="1232" type="curve" smooth="yes"/>
      <point x="76" y="1232"/>
      <point x="36" y="1167"/>
      <point x="18" y="1035" type="curve"/>
      <point x="110" y="1023" type="line"/>
      <point x="122" y="1076"/>
      <point x="134" y="1097"/>
      <point x="170" y="1097" type="curve" smooth="yes"/>
      <point x="220" y="1097"/>
      <point x="260" y="1024"/>
    </contour>
  </outline>
</glyph>
<glyph name="circumflex.uc" format="2">
  <advance width="538"/>
  <anchor x="268.5" y="740" name="_top"/>
  <outline>
    <contour>
      <point x="344.0" y="998" type="line"/>
      <point x="524.0" y="824" type="line"/>
      <point x="524.0" y="771" type="line"/>
      <point x="444.0" y="771" type="line"/>
      <point x="231.0" y="859" type="line"/>
      <point x="295.0" y="858" type="line"/>
      <point x="89.0" y="771" type="line"/>
      <point x="13.0" y="771" type="line"/>
      <point x="13.0" y="824" type="line"/>
      <point x="193.0" y="998" type="line"/>
    </contour>
  </outline>
</glyph>
<glyph name="dollar.proportional" format="2">
  <advance width="728"/>
  <outline>
    <contour>
      <point x="299" y="787.0" type="line"/>
      <point x="299" y="642" type="line"/>
      <point x="326" y="622" type="line"/>
      <point x="326" y="84" type="line"/>
      <point x="299" y="64.0" type="line"/>
      <point x="299" y="-117.0" type="line"/>
      <point x="423" y="-117.0" type="line"/>
      <point x="423" y="63.0" type="line"/>
      <point x="397" y="86" type="line"/>
      <point x="397" y="629" type="line"/>
      <point x="423" y="651" type="line"/>
      <point x="423" y="787.0" type="line"/>
    </contour>
    <contour>
      <point x="356" y="99" type="curve"/>
      <point x="226" y="99"/>
      <point x="151" y="135.0"/>
      <point x="110" y="160" type="curve"/>
      <point x="116" y="139"/>
      <point x="147" y="91"/>
      <point x="188" y="95.0" type="curve"/>
      <point x="188" y="219" type="line"/>
      <point x="34" y="219" type="line"/>
      <point x="34" y="87" type="line"/>
      <point x="96" y="54"/>
      <point x="208" y="14"/>
      <point x="361" y="14" type="curve"/>
      <point x="573" y="14"/>
      <point x="682" y="95"/>
      <point x="682" y="252" type="curve" smooth="yes"/>
      <point x="682" y="392"/>
      <point x="557" y="438"/>
      <point x="378" y="472.0" type="curve" smooth="yes"/>
      <point x="249" y="497"/>
      <point x="203" y="505"/>
      <point x="203" y="551" type="curve" smooth="yes"/>
      <point x="203.0" y="586.0"/>
      <point x="229" y="613"/>
      <point x="366" y="613" type="curve" smooth="yes"/>
      <point x="433.0" y="613.0"/>
      <point x="505" y="598"/>
      <point x="560" y="564" type="curve"/>
      <point x="561" y="574"/>
      <point x="539" y="626"/>
      <point x="498" y="622" type="curve"/>
      <point x="498" y="520" type="line"/>
      <point x="652" y="520" type="line"/>
      <point x="652" y="635" type="line"/>
      <point x="610" y="665"/>
      <point x="488" y="697"/>
      <point x="368" y="697" type="curve" smooth="yes"/>
      <point x="147.0" y="697.0"/>
      <point x="52" y="629"/>
      <point x="52.0" y="486" type="curve" smooth="yes"/>
      <point x="52" y="338"/>
      <point x="154" y="297"/>
      <point x="317" y="267.0" type="curve" smooth="yes"/>
      <point x="450" y="243"/>
      <point x="526" y="222"/>
      <point x="526" y="173" type="curve" smooth="yes"/>
      <point x="526.0" y="126.0"/>
      <point x="467" y="99"/>
    </contour>
  </outline>
</glyph>
<glyph name="eight.oldprop" format="2">
  <advance width="764"/>
  <outline>
    <contour>
      <point x="382" y="99" type="curve" smooth="yes"/>
      <point x="314" y="99"/>
      <point x="274" y="128"/>
      <point x="274" y="216" type="curve" smooth="yes"/>
      <point x="274" y="310"/>
      <point x="320" y="334"/>
      <point x="382" y="334" type="curve" smooth="yes"/>
      <point x="444" y="334"/>
      <point x="490" y="310"/>
      <point x="490" y="216" type="curve" smooth="yes"/>
      <point x="490" y="128"/>
      <point x="449" y="99"/>
    </contour>
    <contour>
      <point x="382" y="425" type="curve" smooth="yes"/>
      <point x="327" y="425"/>
      <point x="288" y="446"/>
      <point x="288" y="525" type="curve" smooth="yes"/>
      <point x="288" y="597"/>
      <point x="327" y="617"/>
      <point x="382" y="617" type="curve" smooth="yes"/>
      <point x="436" y="617"/>
      <point x="475" y="597"/>
      <point x="475" y="525" type="curve" smooth="yes"/>
      <point x="475" y="446"/>
      <point x="436" y="425"/>
    </contour>
    <contour>
      <point x="382" y="727" type="curve" smooth="yes"/>
      <point x="164" y="727"/>
      <point x="69" y="664"/>
      <point x="69" y="552" type="curve" smooth="yes"/>
      <point x="69" y="438"/>
      <point x="145" y="400"/>
      <point x="317" y="382" type="curve"/>
      <point x="256" y="410" type="line"/>
      <point x="256" y="354" type="line"/>
      <point x="317" y="382" type="line"/>
      <point x="139" y="364"/>
      <point x="36" y="317"/>
      <point x="36" y="194" type="curve" smooth="yes"/>
      <point x="36" y="56"/>
      <point x="144" y="-10"/>
      <point x="382" y="-10" type="curve" smooth="yes"/>
      <point x="619" y="-10"/>
      <point x="728" y="56"/>
      <point x="728" y="194" type="curve" smooth="yes"/>
      <point x="728" y="317"/>
      <point x="624" y="364"/>
      <point x="447" y="382" type="curve"/>
      <point x="507" y="354" type="line"/>
      <point x="507" y="410" type="line"/>
      <point x="447" y="382" type="line"/>
      <point x="619" y="400"/>
      <point x="695" y="438"/>
      <point x="695" y="552" type="curve" smooth="yes"/>
      <point x="695" y="664"/>
      <point x="599" y="727"/>
    </contour>
  </outline>
</glyph>
<glyph name="five.linprop" format="2">
  <advance width="735"/>
  <outline>
    <contour>
      <point x="335" y="-11" type="curve" smooth="yes"/>
      <point x="156" y="-11"/>
      <point x="50" y="53"/>
      <point x="14" y="135" type="curve"/>
      <point x="111" y="193" type="line"/>
      <point x="144" y="132"/>
      <point x="193" y="94"/>
      <point x="279" y="94" type="curve" smooth="yes"/>
      <point x="374.0" y="94.0"/>
      <point x="416" y="141"/>
      <point x="416" y="242" type="curve" smooth="yes"/>
      <point x="416" y="326"/>
      <point x="378" y="360"/>
      <point x="303" y="360" type="curve" smooth="yes"/>
      <point x="234" y="360"/>
      <point x="192" y="337"/>
      <point x="168" y="291" type="curve"/>
      <point x="78" y="291" type="line"/>
      <point x="78" y="710" type="line"/>
      <point x="638" y="710" type="line"/>
      <point x="619" y="547" type="line"/>
      <point x="158" y="547" type="line"/>
      <point x="190" y="690" type="line"/>
      <point x="190" y="375" type="line"/>
      <point x="180" y="355"/>
      <point x="175" y="349"/>
      <point x="158" y="353" type="curve"/>
      <point x="205" y="422"/>
      <point x="263" y="469"/>
      <point x="418" y="469" type="curve" smooth="yes"/>
      <point x="604.0" y="469.0"/>
      <point x="696" y="395"/>
      <point x="696" y="246" type="curve" smooth="yes"/>
      <point x="696" y="71"/>
      <point x="586" y="-11"/>
    </contour>
  </outline>
</glyph>
<glyph name="five.oldprop" format="2">
  <advance width="678"/>
  <outline>
    <contour>
      <point x="311" y="-90" type="curve" smooth="yes"/>
      <point x="154" y="-90"/>
      <point x="62" y="-46"/>
      <point x="15" y="49" type="curve"/>
      <point x="121" y="118" type="line"/>
      <point x="160" y="49"/>
      <point x="211" y="20"/>
      <point x="275" y="20" type="curve" smooth="yes"/>
      <point x="348" y="20"/>
      <point x="390" y="60"/>
      <point x="390" y="160" type="curve" smooth="yes"/>
      <point x="390" y="244"/>
      <point x="354" y="275"/>
      <point x="301" y="275" type="curve" smooth="yes"/>
      <point x="250" y="275"/>
      <point x="212" y="253"/>
      <point x="190" y="208" type="curve"/>
      <point x="88" y="208" type="line"/>
      <point x="88" y="639" type="line"/>
      <point x="583" y="639" type="line"/>
      <point x="565" y="469" type="line"/>
      <point x="149" y="469" type="line"/>
      <point x="200" y="569" type="line"/>
      <point x="200" y="293" type="line"/>
      <point x="194" y="278"/>
      <point x="183" y="274"/>
      <point x="174" y="284" type="curve"/>
      <point x="202" y="339"/>
      <point x="279" y="390"/>
      <point x="386" y="390" type="curve" smooth="yes"/>
      <point x="543" y="390"/>
      <point x="639" y="314"/>
      <point x="639" y="164" type="curve" smooth="yes"/>
      <point x="639" y="-12"/>
      <point x="516" y="-90"/>
    </contour>
  </outline>
</glyph>
<glyph name="four.den" format="2">
  <advance width="520"/>
  <outline>
    <contour>
      <point x="22" y="80" type="line"/>
      <point x="501" y="80" type="line"/>
      <point x="501" y="201" type="line"/>
      <point x="55" y="201" type="line"/>
      <point x="87" y="156" type="line"/>
      <point x="312" y="416" type="line"/>
      <point x="280" y="426" type="line"/>
      <point x="217" y="426" type="line"/>
      <point x="22" y="210" type="line"/>
    </contour>
    <contour>
      <point x="439" y="0" type="line"/>
      <point x="439" y="426" type="line"/>
      <point x="262" y="426" type="line"/>
      <point x="259" y="406" type="line"/>
      <point x="259" y="0" type="line"/>
    </contour>
  </outline>
</glyph>
<glyph name="grave.uc" format="2">
  <advance width="538"/>
  <anchor x="386" y="730" name="_top"/>
  <outline>
    <contour>
      <point x="329" y="928" type="curve" smooth="yes"/>
      <point x="443" y="823" type="line"/>
      <point x="443" y="778" type="line"/>
      <point x="386" y="778" type="line"/>
      <point x="225" y="807" type="line" smooth="yes"/>
      <point x="132" y="824"/>
      <point x="79" y="859"/>
      <point x="79" y="922" type="curve" smooth="yes"/>
      <point x="79" y="977"/>
      <point x="116" y="1016"/>
      <point x="177" y="1016" type="curve" smooth="yes"/>
      <point x="240" y="1016"/>
      <point x="274" y="979"/>
    </contour>
  </outline>
</glyph>
<glyph name="heartsuitwhite" format="2">
  <advance width="974"/>
  <outline>
    <contour>
      <point x="474" y="451" type="curve"/>
      <point x="485" y="452" type="line"/>
      <point x="519" y="542"/>
      <point x="586" y="633"/>
      <point x="683" y="633" type="curve" smooth="yes"/>
      <point x="753" y="633"/>
      <point x="798" y="596"/>
      <point x="798" y="519" type="curve" smooth="yes"/>
      <point x="798.0" y="447.0"/>
      <point x="772" y="401"/>
      <point x="699" y="322" type="curve" smooth="yes"/>
      <point x="484" y="91" type="line"/>
      <point x="475" y="91" type="line"/>
      <point x="261" y="322" type="line" smooth="yes"/>
      <point x="187" y="401"/>
      <point x="161" y="447"/>
      <point x="161" y="519" type="curve" smooth="yes"/>
      <point x="161.0" y="596.0"/>
      <point x="206" y="633"/>
      <point x="276" y="633" type="curve" smooth="yes"/>
      <point x="373" y="633"/>
      <point x="440" y="541"/>
    </contour>
    <contour>
      <point x="492" y="-10" type="line"/>
      <point x="753" y="273" type="line" smooth="yes"/>
      <point x="845" y="373"/>
      <point x="885" y="434"/>
      <point x="885" y="525" type="curve" smooth="yes"/>
      <point x="885.0" y="632.0"/>
      <point x="815" y="710"/>
      <point x="692" y="710" type="curve" smooth="yes"/>
      <point x="583" y="710"/>
      <point x="520" y="657"/>
      <point x="480" y="569" type="curve"/>
      <point x="439" y="657"/>
      <point x="375" y="710"/>
      <point x="267" y="710" type="curve" smooth="yes"/>
      <point x="144" y="710"/>
      <point x="74" y="632"/>
      <point x="74" y="525" type="curve" smooth="yes"/>
      <point x="74.0" y="434.0"/>
      <point x="114" y="373"/>
      <point x="206" y="273" type="curve" smooth="yes"/>
      <point x="467" y="-10" type="line"/>
    </contour>
  </outline>
</glyph>
<glyph name="hook.uc" format="2">
  <advance width="538"/>
  <anchor x="257" y="740" name="_top"/>
  <outline>
    <contour>
      <point x="7" y="950" type="line"/>
      <point x="16" y="1060"/>
      <point x="128" y="1101"/>
      <point x="267" y="1101" type="curve" smooth="yes"/>
      <point x="418" y="1101"/>
      <point x="522" y="1067"/>
      <point x="522" y="967" type="curve" smooth="yes"/>
      <point x="522" y="862"/>
      <point x="412" y="826"/>
      <point x="248" y="825" type="curve"/>
      <point x="323" y="878" type="line"/>
      <point x="323" y="777" type="line"/>
      <point x="192" y="777" type="line"/>
      <point x="192" y="890" type="line"/>
      <point x="295" y="891"/>
      <point x="355" y="892"/>
      <point x="355" y="952" type="curve" smooth="yes"/>
      <point x="355" y="994"/>
      <point x="316" y="1009"/>
      <point x="264" y="1009" type="curve" smooth="yes"/>
      <point x="213" y="1009"/>
      <point x="172" y="996"/>
      <point x="167" y="950" type="curve"/>
    </contour>
  </outline>
</glyph>
<glyph name="manat.proportional" format="2">
  <advance width="926"/>
  <outline>
    <contour>
      <point x="411" y="771" type="line"/>
      <point x="411" y="124" type="line"/>
      <point x="515" y="124" type="line"/>
      <point x="515" y="771" type="line"/>
    </contour>
    <contour>
      <point x="463" y="537" type="curve" smooth="yes"/>
      <point x="643" y="537"/>
      <point x="650" y="435"/>
      <point x="656" y="0" type="curve"/>
      <point x="876" y="0" type="line"/>
      <point x="864" y="472"/>
      <point x="719" y="627"/>
      <point x="463" y="627" type="curve" smooth="yes"/>
      <point x="207" y="627"/>
      <point x="62" y="472"/>
      <point x="50" y="0" type="curve"/>
      <point x="270" y="0" type="line"/>
      <point x="276" y="435"/>
      <point x="283" y="537"/>
    </contour>
  </outline>
</glyph>
<glyph name="nine.lintab" format="2">
  <advance width="680"/>
  <outline>
    <contour>
      <point x="94" y="106" type="line"/>
      <point x="300" y="123"/>
      <point x="414" y="175"/>
      <point x="414" y="437" type="curve" smooth="yes"/>
      <point x="414" y="581"/>
      <point x="377" y="615"/>
      <point x="332" y="615" type="curve" smooth="yes"/>
      <point x="283.0" y="615.0"/>
      <point x="261" y="576"/>
      <point x="261" y="486" type="curve" smooth="yes"/>
      <point x="261" y="381"/>
      <point x="283" y="351"/>
      <point x="336" y="351" type="curve" smooth="yes"/>
      <point x="371" y="351"/>
      <point x="406" y="368"/>
      <point x="442" y="425" type="curve"/>
      <point x="449" y="386" type="line"/>
      <point x="414" y="304"/>
      <point x="361" y="246"/>
      <point x="246" y="246" type="curve" smooth="yes"/>
      <point x="125.0" y="246.0"/>
      <point x="29" y="311"/>
      <point x="29" y="473" type="curve" smooth="yes"/>
      <point x="29" y="659"/>
      <point x="158" y="735"/>
      <point x="330" y="735" type="curve" smooth="yes"/>
      <point x="512" y="735"/>
      <point x="646" y="658"/>
      <point x="646" y="426" type="curve" smooth="yes"/>
      <point x="646" y="155"/>
      <point x="430" y="10"/>
      <point x="111" y="-18" type="curve"/>
    </contour>
  </outline>
</glyph>
<glyph name="nine.oldtab" format="2">
  <advance width="680"/>
  <outline>
    <contour>
      <point x="97.0" y="-24.0" type="line"/>
      <point x="330.0" y="-5.0"/>
      <point x="418.0" y="100.0"/>
      <point x="418.0" y="355.0" type="curve" smooth="yes"/>
      <point x="418.0" y="516.0"/>
      <point x="385.0" y="539.0"/>
      <point x="341.0" y="539.0" type="curve" smooth="yes"/>
      <point x="301.0" y="539.0"/>
      <point x="272.0" y="512.0"/>
      <point x="272.0" y="406.0" type="curve" smooth="yes"/>
      <point x="272.0" y="303.0"/>
      <point x="299.0" y="269.0"/>
      <point x="347.0" y="269.0" type="curve" smooth="yes"/>
      <point x="386.0" y="269.0"/>
      <point x="417.0" y="288.0"/>
      <point x="452.0" y="353.0" type="curve"/>
      <point x="459.0" y="293.0" type="line"/>
      <point x="416.0" y="226.0"/>
      <point x="344.0" y="176.0"/>
      <point x="240.0" y="176.0" type="curve" smooth="yes"/>
      <point x="110.0" y="176.0"/>
      <point x="38.0" y="239.0"/>
      <point x="38.0" y="392.0" type="curve" smooth="yes"/>
      <point x="38.0" y="575.0"/>
      <point x="153.0" y="649.0"/>
      <point x="351.0" y="649.0" type="curve" smooth="yes"/>
      <point x="539.0" y="649.0"/>
      <point x="652.0" y="573.0"/>
      <point x="652.0" y="344.0" type="curve" smooth="yes"/>
      <point x="652.0" y="79.0"/>
      <point x="492.0" y="-98.0"/>
      <point x="112.0" y="-134.0" type="curve"/>
    </contour>
  </outline>
</glyph>
<glyph name="ring.uc" format="2">
  <advance width="538"/>
  <anchor x="267.5" y="740" name="_top"/>
  <outline>
    <contour>
      <point x="194.5" y="929" type="curve" smooth="yes"/>
      <point x="194.5" y="972"/>
      <point x="220.5" y="995"/>
      <point x="267.5" y="995" type="curve" smooth="yes"/>
      <point x="315.5" y="995"/>
      <point x="340.5" y="972"/>
      <point x="340.5" y="929" type="curve" smooth="yes"/>
      <point x="340.5" y="887"/>
      <point x="315.5" y="864"/>
      <point x="267.5" y="864" type="curve" smooth="yes"/>
      <point x="220.5" y="864"/>
      <point x="194.5" y="887"/>
    </contour>
    <contour>
      <point x="464.0" y="929" type="curve" smooth="yes"/>
      <point x="464.0" y="1025"/>
      <point x="390.0" y="1089"/>
      <point x="267.0" y="1089" type="curve" smooth="yes"/>
      <point x="145.0" y="1089"/>
      <point x="71.0" y="1025"/>
      <point x="71.0" y="929" type="curve" smooth="yes"/>
      <point x="71.0" y="834"/>
      <point x="145.0" y="770"/>
      <point x="267.0" y="770" type="curve" smooth="yes"/>
      <point x="390.0" y="770"/>
      <point x="464.0" y="834"/>
    </contour>
  </outline>
</glyph>
<glyph name="slash.uc" format="2">
  <advance width="612"/>
  <outline>
    <contour>
      <point x="466" y="760" type="line"/>
      <point x="38" y="-60" type="line"/>
      <point x="174" y="-60" type="line"/>
      <point x="602" y="760" type="line"/>
    </contour>
  </outline>
</glyph>
<glyph name="three.linprop" format="2">
  <advance width="794"/>
  <outline>
    <contour>
      <point x="384" y="373" type="line"/>
      <point x="672" y="363"/>
      <point x="746" y="323"/>
      <point x="746" y="202" type="curve" smooth="yes"/>
      <point x="746" y="38"/>
      <point x="600" y="-11"/>
      <point x="397" y="-11" type="curve" smooth="yes"/>
      <point x="155" y="-11"/>
      <point x="64" y="61"/>
      <point x="23" y="146" type="curve"/>
      <point x="123" y="206" type="line"/>
      <point x="159" y="146"/>
      <point x="228" y="98"/>
      <point x="314" y="98" type="curve" smooth="yes"/>
      <point x="389" y="98"/>
      <point x="440" y="127"/>
      <point x="440" y="216" type="curve" smooth="yes"/>
      <point x="440" y="285"/>
      <point x="414" y="323"/>
      <point x="297" y="323" type="curve" smooth="yes"/>
      <point x="207" y="323" type="line"/>
      <point x="207" y="425" type="line"/>
      <point x="282" y="425" type="line" smooth="yes"/>
      <point x="381" y="425"/>
      <point x="425" y="465"/>
      <point x="425" y="552" type="curve" smooth="yes"/>
      <point x="425" y="615"/>
      <point x="387" y="642"/>
      <point x="329" y="642" type="curve" smooth="yes"/>
      <point x="265" y="642"/>
      <point x="232" y="631"/>
      <point x="194" y="625" type="curve"/>
      <point x="183" y="638"/>
      <point x="205" y="679"/>
      <point x="238" y="682" type="curve"/>
      <point x="238" y="520" type="line"/>
      <point x="77" y="520" type="line"/>
      <point x="77" y="689" type="line"/>
      <point x="171" y="714"/>
      <point x="274" y="735"/>
      <point x="415" y="735" type="curve" smooth="yes"/>
      <point x="635" y="735"/>
      <point x="721" y="689"/>
      <point x="721" y="575" type="curve"/>
      <point x="721" y="442"/>
      <point x="593" y="406"/>
      <point x="381" y="388" type="curve"/>
      <point x="455" y="409" type="line"/>
      <point x="455" y="354" type="line"/>
    </contour>
  </outline>
</glyph>
<glyph name="three.midprop" format="2">
  <advance width="685"/>
  <outline>
    <contour>
      <point x="284" y="52" type="curve" smooth="yes"/>
      <point x="362" y="52"/>
      <point x="405" y="91"/>
      <point x="405" y="162" type="curve" smooth="yes"/>
      <point x="405" y="242"/>
      <point x="372" y="272"/>
      <point x="258" y="272" type="curve" smooth="yes"/>
      <point x="174" y="272" type="line"/>
      <point x="174" y="387" type="line"/>
      <point x="248" y="387" type="line" smooth="yes"/>
      <point x="344" y="387"/>
      <point x="393" y="424"/>
      <point x="393" y="499" type="curve" smooth="yes"/>
      <point x="393.0" y="557.0"/>
      <point x="362" y="584"/>
      <point x="291" y="584" type="curve" smooth="yes"/>
      <point x="250.0" y="584.0"/>
      <point x="215" y="570"/>
      <point x="193" y="560" type="curve"/>
      <point x="182" y="573"/>
      <point x="203" y="618"/>
      <point x="236" y="621" type="curve"/>
      <point x="236" y="483" type="line"/>
      <point x="66" y="483" type="line"/>
      <point x="66" y="634" type="line"/>
      <point x="140" y="668"/>
      <point x="229" y="694"/>
      <point x="350" y="694" type="curve" smooth="yes"/>
      <point x="540" y="694"/>
      <point x="630" y="648"/>
      <point x="630" y="527" type="curve" smooth="yes"/>
      <point x="630.0" y="393.0"/>
      <point x="524" y="362"/>
      <point x="346" y="343" type="curve"/>
      <point x="411" y="365" type="line"/>
      <point x="411" y="310" type="line"/>
      <point x="349" y="329" type="line"/>
      <point x="587" y="319"/>
      <point x="655" y="274"/>
      <point x="655" y="153" type="curve" smooth="yes"/>
      <point x="655" y="-10"/>
      <point x="525" y="-58"/>
      <point x="322" y="-58" type="curve" smooth="yes"/>
      <point x="128" y="-58"/>
      <point x="52" y="11"/>
      <point x="10" y="99" type="curve"/>
      <point x="112" y="166" type="line"/>
      <point x="150" y="102"/>
      <point x="192" y="52"/>
    </contour>
  </outline>
</glyph>
<glyph name="two.lintab" format="2">
  <advance width="680"/>
  <outline>
    <contour>
      <point x="391" y="190" type="line" smooth="yes"/>
      <point x="474" y="190"/>
      <point x="504" y="200"/>
      <point x="513" y="236" type="curve" smooth="yes"/>
      <point x="520" y="265" type="line"/>
      <point x="624" y="265" type="line"/>
      <point x="624" y="0" type="line"/>
      <point x="45" y="0" type="line"/>
      <point x="45" y="219" type="line"/>
      <point x="254" y="327"/>
      <point x="346" y="375"/>
      <point x="346" y="522" type="curve" smooth="yes"/>
      <point x="346" y="593"/>
      <point x="311" y="615"/>
      <point x="258" y="615" type="curve" smooth="yes"/>
      <point x="223" y="615"/>
      <point x="178" y="603"/>
      <point x="151" y="593" type="curve"/>
      <point x="148" y="607"/>
      <point x="169" y="661"/>
      <point x="221" y="656" type="curve"/>
      <point x="221" y="489" type="line"/>
      <point x="51" y="489" type="line"/>
      <point x="51" y="675" type="line"/>
      <point x="103" y="701"/>
      <point x="212" y="735"/>
      <point x="334" y="735" type="curve" smooth="yes"/>
      <point x="518" y="735"/>
      <point x="615" y="659"/>
      <point x="615" y="531" type="curve" smooth="yes"/>
      <point x="615" y="314"/>
      <point x="340" y="268"/>
      <point x="98" y="162" type="curve"/>
      <point x="79" y="163"/>
      <point x="66" y="172"/>
      <point x="87" y="190" type="curve"/>
    </contour>
  </outline>
</glyph>
<glyph name="whitediamond" format="2">
  <advance width="669"/>
  <outline>
    <contour>
      <point x="576" y="313" type="line"/>
      <point x="315" y="574" type="line"/>
      <point x="53" y="313" type="line"/>
      <point x="315" y="52" type="line"/>
    </contour>
    <contour>
      <point x="493" y="313" type="line"/>
      <point x="315" y="131" type="line"/>
      <point x="137" y="313" type="line"/>
      <point x="315" y="495" type="line"/>
    </contour>
  </outline>
</glyph>
<glyph name="zero.oldprop" format="2">
  <advance width="801"/>
  <outline>
    <contour>
      <point x="401" y="-11" type="curve" smooth="yes"/>
      <point x="621" y="-11"/>
      <point x="761" y="86"/>
      <point x="761" y="319" type="curve" smooth="yes"/>
      <point x="761" y="552"/>
      <point x="621" y="649"/>
      <point x="401" y="649" type="curve" smooth="yes"/>
      <point x="180" y="649"/>
      <point x="40" y="552"/>
      <point x="40" y="319" type="curve" smooth="yes"/>
      <point x="40" y="86"/>
      <point x="180" y="-11"/>
    </contour>
    <contour>
      <point x="401" y="99" type="curve" smooth="yes"/>
      <point x="320" y="99"/>
      <point x="289" y="145"/>
      <point x="289" y="319" type="curve" smooth="yes"/>
      <point x="289.0" y="493.0"/>
      <point x="320" y="539"/>
      <point x="401" y="539" type="curve" smooth="yes"/>
      <point x="481" y="539"/>
      <point x="512" y="493"/>
      <point x="512" y="319" type="curve" smooth="yes"/>
      <point x="512.0" y="145.0"/>
      <point x="481" y="99"/>
    </contour>
  </outline>
</glyph>
<glyph name="zero.prop" format="2">
  <advance width="738"/>
  <outline>
    <contour>
      <point x="697" y="319" type="curve" smooth="yes"/>
      <point x="697" y="551"/>
      <point x="566" y="649"/>
      <point x="369" y="649" type="curve" smooth="yes"/>
      <point x="172" y="649"/>
      <point x="41" y="551"/>
      <point x="41" y="319" type="curve" smooth="yes"/>
      <point x="41" y="87"/>
      <point x="172" y="-11"/>
      <point x="369" y="-11" type="curve" smooth="yes"/>
      <point x="566" y="-11"/>
      <point x="697" y="87"/>
    </contour>
    <contour>
      <point x="291" y="319" type="curve" smooth="yes"/>
      <point x="291" y="493"/>
      <point x="312" y="539"/>
      <point x="369" y="539" type="curve" smooth="yes"/>
      <point x="426" y="539"/>
      <point x="447" y="493"/>
      <point x="447" y="319" type="curve" smooth="yes"/>
      <point x="447" y="145"/>
      <point x="426" y="99"/>
      <point x="369" y="99" type="curve" smooth="yes"/>
      <point x="312" y="99"/>
      <point x="291" y="145"/>
    </contour>
  </outline>
</glyph>
<glyph name="zero.slash" format="2">
  <advance width="738"/>
  <outline>
    <contour>
      <point x="220.0" y="139.0" type="line"/>
      <point x="543.0" y="400.0" type="line"/>
      <point x="521.0" y="499.0" type="line"/>
      <point x="195.0" y="236.0" type="line"/>
    </contour>
    <contour>
      <point x="369.0" y="-11.0" type="curve" smooth="yes"/>
      <point x="566.0" y="-11.0"/>
      <point x="697.0" y="87.0"/>
      <point x="697.0" y="319.0" type="curve" smooth="yes"/>
      <point x="697.0" y="551.0"/>
      <point x="566.0" y="649.0"/>
      <point x="369.0" y="649.0" type="curve" smooth="yes"/>
      <point x="172.0" y="649.0"/>
      <point x="41.0" y="551.0"/>
      <point x="41.0" y="319.0" type="curve" smooth="yes"/>
      <point x="41.0" y="87.0"/>
      <point x="172.0" y="-11.0"/>
    </contour>
    <contour>
      <point x="369.0" y="99.0" type="curve" smooth="yes"/>
      <point x="312.0" y="99.0"/>
      <point x="291.0" y="145.0"/>
      <point x="291.0" y="319.0" type="curve" smooth="yes"/>
      <point x="291.0" y="493.0"/>
      <point x="312.0" y="539.0"/>
      <point x="369.0" y="539.0" type="curve" smooth="yes"/>
      <point x="426.0" y="539.0"/>
      <point x="447.0" y="493.0"/>
      <point x="447.0" y="319.0" type="curve" smooth="yes"/>
      <point x="447.0" y="145.0"/>
      <point x="426.0" y="99.0"/>
    </contour>
  </outline>
</glyph>
